<mxfile host="app.diagrams.net" modified="2024-05-06T07:47:13.182Z" agent="Mozilla/5.0 (Windows NT 10.0; Win64; x64) AppleWebKit/537.36 (KHTML, like Gecko) Chrome/123.0.0.0 Safari/537.36" etag="o_Bd5Qzl4ODnbOig4nQd" version="24.3.1" type="github">
  <diagram name="Page-1" id="b520641d-4fe3-3701-9064-5fc419738815">
    <mxGraphModel dx="882" dy="504" grid="1" gridSize="10" guides="1" tooltips="1" connect="1" arrows="1" fold="1" page="1" pageScale="1" pageWidth="1100" pageHeight="850" background="none" math="0" shadow="0">
      <root>
        <mxCell id="0" />
        <mxCell id="1" parent="0" />
        <mxCell id="ZXjSyWkLLc5fmDxmPstq-6" style="edgeStyle=orthogonalEdgeStyle;rounded=0;orthogonalLoop=1;jettySize=auto;html=1;" edge="1" parent="1" source="s_kVEvUEnIK9olVbrQxF-3" target="cVxhysHf_0xUjduygHL8-1">
          <mxGeometry relative="1" as="geometry" />
        </mxCell>
        <mxCell id="s_kVEvUEnIK9olVbrQxF-3" value="" style="image;aspect=fixed;perimeter=ellipsePerimeter;html=1;align=center;shadow=0;dashed=0;fontColor=#4277BB;labelBackgroundColor=default;fontSize=12;spacingTop=3;image=img/lib/ibm/users/sensor.svg;" parent="1" vertex="1">
          <mxGeometry x="30" y="20" width="50" height="50" as="geometry" />
        </mxCell>
        <mxCell id="s_kVEvUEnIK9olVbrQxF-82" style="edgeStyle=orthogonalEdgeStyle;rounded=0;orthogonalLoop=1;jettySize=auto;html=1;entryX=1;entryY=0.5;entryDx=0;entryDy=0;" parent="1" source="s_kVEvUEnIK9olVbrQxF-60" target="s_kVEvUEnIK9olVbrQxF-61" edge="1">
          <mxGeometry relative="1" as="geometry">
            <Array as="points">
              <mxPoint x="520" y="225" />
              <mxPoint x="520" y="130" />
            </Array>
          </mxGeometry>
        </mxCell>
        <mxCell id="s_kVEvUEnIK9olVbrQxF-60" value="" style="aspect=fixed;sketch=0;html=1;dashed=0;whitespace=wrap;fillColor=#2875E2;strokeColor=#ffffff;points=[[0.005,0.63,0],[0.1,0.2,0],[0.9,0.2,0],[0.5,0,0],[0.995,0.63,0],[0.72,0.99,0],[0.5,1,0],[0.28,0.99,0]];shape=mxgraph.kubernetes.icon2;kubernetesLabel=1;prIcon=api" parent="1" vertex="1">
          <mxGeometry x="552.27" y="180" width="93.75" height="90" as="geometry" />
        </mxCell>
        <mxCell id="s_kVEvUEnIK9olVbrQxF-67" style="edgeStyle=orthogonalEdgeStyle;rounded=0;orthogonalLoop=1;jettySize=auto;html=1;startArrow=classic;startFill=1;" parent="1" source="s_kVEvUEnIK9olVbrQxF-61" edge="1">
          <mxGeometry relative="1" as="geometry">
            <mxPoint x="560" y="70" as="targetPoint" />
            <Array as="points">
              <mxPoint x="520" y="130" />
              <mxPoint x="520" y="70" />
            </Array>
          </mxGeometry>
        </mxCell>
        <mxCell id="s_kVEvUEnIK9olVbrQxF-61" value="" style="image;aspect=fixed;perimeter=ellipsePerimeter;html=1;align=center;shadow=0;dashed=0;fontColor=#4277BB;labelBackgroundColor=default;fontSize=12;spacingTop=3;image=img/lib/ibm/infrastructure/mobile_backend.svg;" parent="1" vertex="1">
          <mxGeometry x="310" y="60.5" width="139" height="139" as="geometry" />
        </mxCell>
        <mxCell id="s_kVEvUEnIK9olVbrQxF-66" value="" style="image;aspect=fixed;perimeter=ellipsePerimeter;html=1;align=center;shadow=0;dashed=0;spacingTop=3;image=img/lib/active_directory/databases.svg;" parent="1" vertex="1">
          <mxGeometry x="564.96" y="37.5" width="68.37" height="67" as="geometry" />
        </mxCell>
        <mxCell id="s_kVEvUEnIK9olVbrQxF-74" value="" style="image;aspect=fixed;perimeter=ellipsePerimeter;html=1;align=center;shadow=0;dashed=0;fontColor=#4277BB;labelBackgroundColor=default;fontSize=12;spacingTop=3;image=img/lib/ibm/users/sensor.svg;" parent="1" vertex="1">
          <mxGeometry x="30" y="110" width="50" height="50" as="geometry" />
        </mxCell>
        <mxCell id="ZXjSyWkLLc5fmDxmPstq-8" style="edgeStyle=orthogonalEdgeStyle;rounded=0;orthogonalLoop=1;jettySize=auto;html=1;" edge="1" parent="1" source="s_kVEvUEnIK9olVbrQxF-77" target="cVxhysHf_0xUjduygHL8-3">
          <mxGeometry relative="1" as="geometry" />
        </mxCell>
        <mxCell id="s_kVEvUEnIK9olVbrQxF-77" value="" style="image;aspect=fixed;perimeter=ellipsePerimeter;html=1;align=center;shadow=0;dashed=0;fontColor=#4277BB;labelBackgroundColor=default;fontSize=12;spacingTop=3;image=img/lib/ibm/users/sensor.svg;" parent="1" vertex="1">
          <mxGeometry x="30" y="190" width="50" height="50" as="geometry" />
        </mxCell>
        <mxCell id="s_kVEvUEnIK9olVbrQxF-69" value="" style="verticalLabelPosition=bottom;html=1;verticalAlign=top;align=center;strokeColor=none;fillColor=#00BEF2;shape=mxgraph.azure.computer;pointerEvents=1;" parent="1" vertex="1">
          <mxGeometry x="700" y="150" width="50" height="45" as="geometry" />
        </mxCell>
        <mxCell id="s_kVEvUEnIK9olVbrQxF-70" value="" style="verticalLabelPosition=bottom;html=1;verticalAlign=top;align=center;strokeColor=none;fillColor=#00BEF2;shape=mxgraph.azure.computer;pointerEvents=1;" parent="1" vertex="1">
          <mxGeometry x="700" y="250" width="50" height="45" as="geometry" />
        </mxCell>
        <mxCell id="s_kVEvUEnIK9olVbrQxF-91" style="edgeStyle=orthogonalEdgeStyle;rounded=0;orthogonalLoop=1;jettySize=auto;html=1;entryX=0;entryY=0.5;entryDx=0;entryDy=0;entryPerimeter=0;" parent="1" source="s_kVEvUEnIK9olVbrQxF-60" target="s_kVEvUEnIK9olVbrQxF-69" edge="1">
          <mxGeometry relative="1" as="geometry" />
        </mxCell>
        <mxCell id="s_kVEvUEnIK9olVbrQxF-92" style="edgeStyle=orthogonalEdgeStyle;rounded=0;orthogonalLoop=1;jettySize=auto;html=1;entryX=0;entryY=0.5;entryDx=0;entryDy=0;entryPerimeter=0;" parent="1" source="s_kVEvUEnIK9olVbrQxF-60" target="s_kVEvUEnIK9olVbrQxF-70" edge="1">
          <mxGeometry relative="1" as="geometry" />
        </mxCell>
        <mxCell id="s_kVEvUEnIK9olVbrQxF-93" value="" style="image;aspect=fixed;perimeter=ellipsePerimeter;html=1;align=center;shadow=0;dashed=0;fontColor=#4277BB;labelBackgroundColor=default;fontSize=12;spacingTop=3;image=img/lib/ibm/users/sensor.svg;" parent="1" vertex="1">
          <mxGeometry x="30" y="351" width="30" height="30" as="geometry" />
        </mxCell>
        <mxCell id="s_kVEvUEnIK9olVbrQxF-94" value="Sensor" style="text;html=1;align=center;verticalAlign=middle;resizable=0;points=[];autosize=1;strokeColor=none;fillColor=none;" parent="1" vertex="1">
          <mxGeometry x="60" y="351" width="60" height="30" as="geometry" />
        </mxCell>
        <mxCell id="s_kVEvUEnIK9olVbrQxF-96" value="Gateway" style="text;html=1;align=center;verticalAlign=middle;resizable=0;points=[];autosize=1;strokeColor=none;fillColor=none;" parent="1" vertex="1">
          <mxGeometry x="145" y="352" width="70" height="30" as="geometry" />
        </mxCell>
        <mxCell id="s_kVEvUEnIK9olVbrQxF-97" value="" style="image;aspect=fixed;perimeter=ellipsePerimeter;html=1;align=center;shadow=0;dashed=0;fontColor=#4277BB;labelBackgroundColor=default;fontSize=12;spacingTop=3;image=img/lib/ibm/infrastructure/mobile_backend.svg;" parent="1" vertex="1">
          <mxGeometry x="213.32999999999998" y="352" width="29" height="29" as="geometry" />
        </mxCell>
        <mxCell id="s_kVEvUEnIK9olVbrQxF-98" value="Backend" style="text;html=1;align=center;verticalAlign=middle;resizable=0;points=[];autosize=1;strokeColor=none;fillColor=none;" parent="1" vertex="1">
          <mxGeometry x="233.32999999999998" y="351" width="70" height="30" as="geometry" />
        </mxCell>
        <mxCell id="s_kVEvUEnIK9olVbrQxF-99" value="" style="image;aspect=fixed;perimeter=ellipsePerimeter;html=1;align=center;shadow=0;dashed=0;spacingTop=3;image=img/lib/active_directory/databases.svg;" parent="1" vertex="1">
          <mxGeometry x="313.33" y="352" width="30.61" height="30" as="geometry" />
        </mxCell>
        <mxCell id="s_kVEvUEnIK9olVbrQxF-100" value="Database(s)" style="text;html=1;align=center;verticalAlign=middle;resizable=0;points=[];autosize=1;strokeColor=none;fillColor=none;" parent="1" vertex="1">
          <mxGeometry x="333.33" y="352" width="90" height="30" as="geometry" />
        </mxCell>
        <mxCell id="s_kVEvUEnIK9olVbrQxF-101" value="" style="aspect=fixed;sketch=0;html=1;dashed=0;whitespace=wrap;fillColor=#2875E2;strokeColor=#ffffff;points=[[0.005,0.63,0],[0.1,0.2,0],[0.9,0.2,0],[0.5,0,0],[0.995,0.63,0],[0.72,0.99,0],[0.5,1,0],[0.28,0.99,0]];shape=mxgraph.kubernetes.icon2;kubernetesLabel=1;prIcon=api" parent="1" vertex="1">
          <mxGeometry x="423.33000000000004" y="350" width="31.25" height="30" as="geometry" />
        </mxCell>
        <mxCell id="s_kVEvUEnIK9olVbrQxF-102" value="API" style="text;html=1;align=center;verticalAlign=middle;resizable=0;points=[];autosize=1;strokeColor=none;fillColor=none;" parent="1" vertex="1">
          <mxGeometry x="445.59999999999997" y="350" width="40" height="30" as="geometry" />
        </mxCell>
        <mxCell id="s_kVEvUEnIK9olVbrQxF-103" value="" style="verticalLabelPosition=bottom;html=1;verticalAlign=top;align=center;strokeColor=none;fillColor=#00BEF2;shape=mxgraph.azure.computer;pointerEvents=1;" parent="1" vertex="1">
          <mxGeometry x="485.6" y="352.5" width="31" height="25" as="geometry" />
        </mxCell>
        <mxCell id="s_kVEvUEnIK9olVbrQxF-104" value="Frontend" style="text;html=1;align=center;verticalAlign=middle;resizable=0;points=[];autosize=1;strokeColor=none;fillColor=none;" parent="1" vertex="1">
          <mxGeometry x="510.64" y="350" width="70" height="30" as="geometry" />
        </mxCell>
        <mxCell id="-8kim8rZ0ct291czLzAM-8" value="" style="image;aspect=fixed;perimeter=ellipsePerimeter;html=1;align=center;shadow=0;dashed=0;fontColor=#4277BB;labelBackgroundColor=default;fontSize=12;spacingTop=3;image=img/lib/ibm/users/sensor.svg;" parent="1" vertex="1">
          <mxGeometry x="30" y="270" width="50" height="50" as="geometry" />
        </mxCell>
        <mxCell id="cVxhysHf_0xUjduygHL8-1" value="" style="outlineConnect=0;dashed=0;verticalLabelPosition=bottom;verticalAlign=top;align=center;html=1;shape=mxgraph.aws3.internet_gateway;fillColor=#F58534;gradientColor=none;aspect=fixed;" parent="1" vertex="1">
          <mxGeometry x="145" y="60.5" width="57.86" height="60.37" as="geometry" />
        </mxCell>
        <mxCell id="cVxhysHf_0xUjduygHL8-3" value="" style="outlineConnect=0;dashed=0;verticalLabelPosition=bottom;verticalAlign=top;align=center;html=1;shape=mxgraph.aws3.internet_gateway;fillColor=#F58534;gradientColor=none;aspect=fixed;" parent="1" vertex="1">
          <mxGeometry x="145" y="230" width="57.86" height="60.37" as="geometry" />
        </mxCell>
        <mxCell id="cVxhysHf_0xUjduygHL8-4" value="" style="outlineConnect=0;dashed=0;verticalLabelPosition=bottom;verticalAlign=top;align=center;html=1;shape=mxgraph.aws3.internet_gateway;fillColor=#F58534;gradientColor=none;aspect=fixed;" parent="1" vertex="1">
          <mxGeometry x="120" y="349" width="30.67" height="32" as="geometry" />
        </mxCell>
        <mxCell id="ZXjSyWkLLc5fmDxmPstq-7" style="edgeStyle=orthogonalEdgeStyle;rounded=0;orthogonalLoop=1;jettySize=auto;html=1;entryX=0;entryY=0.5;entryDx=0;entryDy=0;entryPerimeter=0;" edge="1" parent="1" source="s_kVEvUEnIK9olVbrQxF-74" target="cVxhysHf_0xUjduygHL8-1">
          <mxGeometry relative="1" as="geometry" />
        </mxCell>
        <mxCell id="ZXjSyWkLLc5fmDxmPstq-9" style="edgeStyle=orthogonalEdgeStyle;rounded=0;orthogonalLoop=1;jettySize=auto;html=1;entryX=0;entryY=0.5;entryDx=0;entryDy=0;entryPerimeter=0;" edge="1" parent="1" source="-8kim8rZ0ct291czLzAM-8" target="cVxhysHf_0xUjduygHL8-3">
          <mxGeometry relative="1" as="geometry" />
        </mxCell>
        <mxCell id="ZXjSyWkLLc5fmDxmPstq-10" value="" style="endArrow=classic;html=1;rounded=0;exitX=1;exitY=0.5;exitDx=0;exitDy=0;exitPerimeter=0;entryX=0;entryY=0.75;entryDx=0;entryDy=0;" edge="1" parent="1" source="cVxhysHf_0xUjduygHL8-3" target="s_kVEvUEnIK9olVbrQxF-61">
          <mxGeometry width="50" height="50" relative="1" as="geometry">
            <mxPoint x="310" y="170" as="sourcePoint" />
            <mxPoint x="320" y="150" as="targetPoint" />
          </mxGeometry>
        </mxCell>
        <mxCell id="ZXjSyWkLLc5fmDxmPstq-11" value="" style="endArrow=classic;html=1;rounded=0;exitX=1;exitY=0.5;exitDx=0;exitDy=0;exitPerimeter=0;entryX=0;entryY=0.5;entryDx=0;entryDy=0;" edge="1" parent="1" source="cVxhysHf_0xUjduygHL8-1" target="s_kVEvUEnIK9olVbrQxF-61">
          <mxGeometry width="50" height="50" relative="1" as="geometry">
            <mxPoint x="310" y="170" as="sourcePoint" />
            <mxPoint x="360" y="120" as="targetPoint" />
          </mxGeometry>
        </mxCell>
      </root>
    </mxGraphModel>
  </diagram>
</mxfile>
